<?xml version="1.0" encoding="utf-8"?>
<!-- Generator: Adobe Illustrator 23.0.1, SVG Export Plug-In . SVG Version: 6.00 Build 0)  -->
<svg version="1.1" id="Layer_1" xmlns="http://www.w3.org/2000/svg" xmlns:xlink="http://www.w3.org/1999/xlink" x="0px" y="0px"
	 viewBox="0 0 1080 1080" style="enable-background:new 0 0 1080 1080;" xml:space="preserve">
<g>
	<g>
		<polygon points="338.3,600.8 407.5,536.1 407.5,410.9 338.3,341.6 		"/>
		<polygon points="338.3,245.8 338.3,247.1 339.6,245.8 		"/>
		<polygon points="340,245.4 339.6,245.8 340.4,245.8 		"/>
		<polygon points="708.2,613.7 407.5,313 407.5,410.9 611.8,615.3 		"/>
		<polygon points="340.4,245.8 339.6,245.8 338.3,247.1 338.3,341.6 407.5,410.9 407.5,313 		"/>
	</g>
	<polygon points="741.7,603 672.5,538.3 672.5,413.1 741.7,343.9 	"/>
	<polygon points="681.4,649.9 681.4,651.2 680.2,649.9 	"/>
	<polygon points="679.8,649.5 680.2,649.9 679.4,649.9 	"/>
	<polygon points="739.6,248 740.4,248 741.7,249.3 741.7,343.9 672.5,413.1 672.5,315.2 	"/>
	<polygon points="561.5,426.2 610.5,475.2 672.5,413.1 672.5,315.2 	"/>
	<g>
		<polygon points="541.3,544.4 590,495.6 541,446.7 492.3,495.4 		"/>
		<polygon points="471.8,515.9 371.8,615.9 468.2,617.6 520.8,564.9 		"/>
	</g>
</g>
<g>
	<path d="M456.7,785.2l-0.2-77l-37.8,63.4h-13.4l-37.6-61.8v75.3h-27.9V656.9h24.6l48,79.7l47.3-79.7h24.4l0.4,128.3H456.7z"/>
	<path d="M626.4,730.2c4.2,5.4,6.2,12.1,6.2,20.1c0,11.2-4.4,19.9-13.1,25.9c-8.7,6-21.5,9.1-38.2,9.1H515V656.9h62.7
		c15.6,0,27.6,3,36,9c8.4,6,12.6,14.1,12.6,24.4c0,6.2-1.5,11.8-4.5,16.7c-3,4.9-7.2,8.7-12.6,11.5
		C616.5,720.9,622.3,724.7,626.4,730.2z M544.5,679.3v30.2H574c7.3,0,12.9-1.3,16.7-3.8c3.8-2.6,5.7-6.4,5.7-11.4
		c0-5-1.9-8.8-5.7-11.3c-3.8-2.5-9.3-3.8-16.7-3.8H544.5z M596.8,759c4-2.6,6-6.5,6-11.9c0-10.6-7.9-15.9-23.6-15.9h-34.6v31.7h34.6
		C586.9,762.9,592.8,761.6,596.8,759z"/>
	<path d="M679.9,681.1h-41.1v-24.2h111.8v24.2h-41.1v104.1h-29.7V681.1z"/>
</g>
</svg>
